<?xml version="1.0" encoding="utf-8" standalone="no"?>
<!DOCTYPE svg PUBLIC "-//W3C//DTD SVG 1.1//EN"
  "http://www.w3.org/Graphics/SVG/1.1/DTD/svg11.dtd">
<svg xmlns:xlink="http://www.w3.org/1999/xlink" width="720pt" height="216pt" viewBox="0 0 720 216" xmlns="http://www.w3.org/2000/svg" version="1.1">
 <metadata>
  <rdf:RDF xmlns:dc="http://purl.org/dc/elements/1.1/" xmlns:cc="http://creativecommons.org/ns#" xmlns:rdf="http://www.w3.org/1999/02/22-rdf-syntax-ns#">
   <cc:Work>
    <dc:type rdf:resource="http://purl.org/dc/dcmitype/StillImage"/>
    <dc:date>2025-09-20T20:17:42.680207</dc:date>
    <dc:format>image/svg+xml</dc:format>
    <dc:creator>
     <cc:Agent>
      <dc:title>Matplotlib v3.10.5, https://matplotlib.org/</dc:title>
     </cc:Agent>
    </dc:creator>
   </cc:Work>
  </rdf:RDF>
 </metadata>
 <defs>
  <style type="text/css">*{stroke-linejoin: round; stroke-linecap: butt}</style>
 </defs>
 <g id="figure_1">
  <g id="patch_1">
   <path d="M 0 216 
L 720 216 
L 720 0 
L 0 0 
z
"/>
  </g>
  <g id="axes_1">
   <g id="patch_2">
    <path d="M 10.8 174.04 
L 709.2 174.04 
L 709.2 26.88 
L 10.8 26.88 
z
"/>
   </g>
   <g id="FillBetweenPolyCollection_1">
    <defs>
     <path id="m707cbef4b1" d="M 63.116078 -57.727143 
L 28.238693 -57.727143 
L 28.238693 -116.853929 
L 63.116078 -116.853929 
L 63.116078 -116.853929 
L 63.116078 -57.727143 
z
"/>
    </defs>
    <g clip-path="url(#p0ee27a8e42)">
     <use xlink:href="#m707cbef4b1" x="0" y="216" style="fill: #3399ff; fill-opacity: 0.18"/>
    </g>
   </g>
   <g id="FillBetweenPolyCollection_2">
    <defs>
     <path id="m052882188b" d="M 246.278598 -57.727143 
L 211.401213 -57.727143 
L 211.401213 -116.853929 
L 246.278598 -116.853929 
L 246.278598 -116.853929 
L 246.278598 -57.727143 
z
"/>
    </defs>
    <g clip-path="url(#p0ee27a8e42)">
     <use xlink:href="#m052882188b" x="0" y="216" style="fill: #3399ff; fill-opacity: 0.18"/>
    </g>
   </g>
   <g id="FillBetweenPolyCollection_3">
    <defs>
     <path id="mcae0987909" d="M 352.863663 -57.727143 
L 317.986278 -57.727143 
L 317.986278 -116.853929 
L 352.863663 -116.853929 
L 352.863663 -116.853929 
L 352.863663 -57.727143 
z
"/>
    </defs>
    <g clip-path="url(#p0ee27a8e42)">
     <use xlink:href="#mcae0987909" x="0" y="216" style="fill: #3399ff; fill-opacity: 0.18"/>
    </g>
   </g>
   <g id="FillBetweenPolyCollection_4">
    <defs>
     <path id="m68bf0311ac" d="M 542.65876 -57.727143 
L 507.781375 -57.727143 
L 507.781375 -116.853929 
L 542.65876 -116.853929 
L 542.65876 -116.853929 
L 542.65876 -57.727143 
z
"/>
    </defs>
    <g clip-path="url(#p0ee27a8e42)">
     <use xlink:href="#m68bf0311ac" x="0" y="216" style="fill: #3399ff; fill-opacity: 0.18"/>
    </g>
   </g>
   <g id="FillBetweenPolyCollection_5">
    <defs>
     <path id="m706c9e936a" d="M 489.589208 -57.727143 
L 454.711823 -57.727143 
L 454.711823 -116.853929 
L 489.589208 -116.853929 
L 489.589208 -116.853929 
L 489.589208 -57.727143 
z
"/>
    </defs>
    <g clip-path="url(#p0ee27a8e42)">
     <use xlink:href="#m706c9e936a" x="0" y="216" style="fill: #3399ff; fill-opacity: 0.18"/>
    </g>
   </g>
   <g id="FillBetweenPolyCollection_6">
    <defs>
     <path id="m89044a8d4f" d="M 681.361718 -57.727143 
L 646.484333 -57.727143 
L 646.484333 -116.853929 
L 681.361718 -116.853929 
L 681.361718 -116.853929 
L 681.361718 -57.727143 
z
"/>
    </defs>
    <g clip-path="url(#p0ee27a8e42)">
     <use xlink:href="#m89044a8d4f" x="0" y="216" style="fill: #3399ff; fill-opacity: 0.18"/>
    </g>
   </g>
   <g id="FillBetweenPolyCollection_7">
    <defs>
     <path id="m303734f0c7" d="M 73.463201 -129.993214 
L 46.974168 -129.993214 
L 46.974168 -189.12 
L 73.463201 -189.12 
L 73.463201 -189.12 
L 73.463201 -129.993214 
z
"/>
    </defs>
    <g clip-path="url(#p0ee27a8e42)">
     <use xlink:href="#m303734f0c7" x="0" y="216" style="fill: #ff801a; fill-opacity: 0.18"/>
    </g>
   </g>
   <g id="FillBetweenPolyCollection_8">
    <defs>
     <path id="me2d97d2e30" d="M 99.952234 -129.993214 
L 73.463201 -129.993214 
L 73.463201 -189.12 
L 99.952234 -189.12 
L 99.952234 -189.12 
L 99.952234 -129.993214 
z
"/>
    </defs>
    <g clip-path="url(#p0ee27a8e42)">
     <use xlink:href="#me2d97d2e30" x="0" y="216" style="fill: #ff801a; fill-opacity: 0.18"/>
    </g>
   </g>
   <g id="FillBetweenPolyCollection_9">
    <defs>
     <path id="m3988dd1c21" d="M 232.397401 -129.993214 
L 205.908368 -129.993214 
L 205.908368 -189.12 
L 232.397401 -189.12 
L 232.397401 -189.12 
L 232.397401 -129.993214 
z
"/>
    </defs>
    <g clip-path="url(#p0ee27a8e42)">
     <use xlink:href="#m3988dd1c21" x="0" y="216" style="fill: #ff801a; fill-opacity: 0.18"/>
    </g>
   </g>
   <g id="FillBetweenPolyCollection_10">
    <defs>
     <path id="m2ec448d5e3" d="M 417.820634 -129.993214 
L 391.331601 -129.993214 
L 391.331601 -189.12 
L 417.820634 -189.12 
L 417.820634 -189.12 
L 417.820634 -129.993214 
z
"/>
    </defs>
    <g clip-path="url(#p0ee27a8e42)">
     <use xlink:href="#m2ec448d5e3" x="0" y="216" style="fill: #ff801a; fill-opacity: 0.18"/>
    </g>
   </g>
   <g id="FillBetweenPolyCollection_11">
    <defs>
     <path id="mf5a5575deb" d="M 497.287734 -129.993214 
L 470.7987 -129.993214 
L 470.7987 -189.12 
L 497.287734 -189.12 
L 497.287734 -189.12 
L 497.287734 -129.993214 
z
"/>
    </defs>
    <g clip-path="url(#p0ee27a8e42)">
     <use xlink:href="#mf5a5575deb" x="0" y="216" style="fill: #ff801a; fill-opacity: 0.18"/>
    </g>
   </g>
   <g id="FillBetweenPolyCollection_12">
    <defs>
     <path id="m7fd4b0cdd5" d="M 695.955483 -129.993214 
L 669.46645 -129.993214 
L 669.46645 -189.12 
L 695.955483 -189.12 
L 695.955483 -189.12 
L 695.955483 -129.993214 
z
"/>
    </defs>
    <g clip-path="url(#p0ee27a8e42)">
     <use xlink:href="#m7fd4b0cdd5" x="0" y="216" style="fill: #ff801a; fill-opacity: 0.18"/>
    </g>
   </g>
   <g id="matplotlib.axis_1">
    <g id="xtick_1">
     <g id="line2d_1">
      <defs>
       <path id="madb0a488d1" d="M 0 0 
L 0 3.5 
" style="stroke: #ffffff; stroke-width: 0.8"/>
      </defs>
      <g>
       <use xlink:href="#madb0a488d1" x="113.196751" y="174.04" style="fill: #ffffff; stroke: #ffffff; stroke-width: 0.8"/>
      </g>
     </g>
     <g id="text_1">
      <!-- 450 -->
      <g style="fill: #ffffff" transform="translate(103.653001 188.638438) scale(0.1 -0.1)">
       <defs>
        <path id="DejaVuSans-34" d="M 2419 4116 
L 825 1625 
L 2419 1625 
L 2419 4116 
z
M 2253 4666 
L 3047 4666 
L 3047 1625 
L 3713 1625 
L 3713 1100 
L 3047 1100 
L 3047 0 
L 2419 0 
L 2419 1100 
L 313 1100 
L 313 1709 
L 2253 4666 
z
" transform="scale(0.015625)"/>
        <path id="DejaVuSans-35" d="M 691 4666 
L 3169 4666 
L 3169 4134 
L 1269 4134 
L 1269 2991 
Q 1406 3038 1543 3061 
Q 1681 3084 1819 3084 
Q 2600 3084 3056 2656 
Q 3513 2228 3513 1497 
Q 3513 744 3044 326 
Q 2575 -91 1722 -91 
Q 1428 -91 1123 -41 
Q 819 9 494 109 
L 494 744 
Q 775 591 1075 516 
Q 1375 441 1709 441 
Q 2250 441 2565 725 
Q 2881 1009 2881 1497 
Q 2881 1984 2565 2268 
Q 2250 2553 1709 2553 
Q 1456 2553 1204 2497 
Q 953 2441 691 2322 
L 691 4666 
z
" transform="scale(0.015625)"/>
        <path id="DejaVuSans-30" d="M 2034 4250 
Q 1547 4250 1301 3770 
Q 1056 3291 1056 2328 
Q 1056 1369 1301 889 
Q 1547 409 2034 409 
Q 2525 409 2770 889 
Q 3016 1369 3016 2328 
Q 3016 3291 2770 3770 
Q 2525 4250 2034 4250 
z
M 2034 4750 
Q 2819 4750 3233 4129 
Q 3647 3509 3647 2328 
Q 3647 1150 3233 529 
Q 2819 -91 2034 -91 
Q 1250 -91 836 529 
Q 422 1150 422 2328 
Q 422 3509 836 4129 
Q 1250 4750 2034 4750 
z
" transform="scale(0.015625)"/>
       </defs>
       <use xlink:href="#DejaVuSans-34"/>
       <use xlink:href="#DejaVuSans-35" transform="translate(63.623047 0)"/>
       <use xlink:href="#DejaVuSans-30" transform="translate(127.246094 0)"/>
      </g>
     </g>
    </g>
    <g id="xtick_2">
     <g id="line2d_2">
      <g>
       <use xlink:href="#madb0a488d1" x="245.641918" y="174.04" style="fill: #ffffff; stroke: #ffffff; stroke-width: 0.8"/>
      </g>
     </g>
     <g id="text_2">
      <!-- 500 -->
      <g style="fill: #ffffff" transform="translate(236.098168 188.638438) scale(0.1 -0.1)">
       <use xlink:href="#DejaVuSans-35"/>
       <use xlink:href="#DejaVuSans-30" transform="translate(63.623047 0)"/>
       <use xlink:href="#DejaVuSans-30" transform="translate(127.246094 0)"/>
      </g>
     </g>
    </g>
    <g id="xtick_3">
     <g id="line2d_3">
      <g>
       <use xlink:href="#madb0a488d1" x="378.087084" y="174.04" style="fill: #ffffff; stroke: #ffffff; stroke-width: 0.8"/>
      </g>
     </g>
     <g id="text_3">
      <!-- 550 -->
      <g style="fill: #ffffff" transform="translate(368.543334 188.638438) scale(0.1 -0.1)">
       <use xlink:href="#DejaVuSans-35"/>
       <use xlink:href="#DejaVuSans-35" transform="translate(63.623047 0)"/>
       <use xlink:href="#DejaVuSans-30" transform="translate(127.246094 0)"/>
      </g>
     </g>
    </g>
    <g id="xtick_4">
     <g id="line2d_4">
      <g>
       <use xlink:href="#madb0a488d1" x="510.53225" y="174.04" style="fill: #ffffff; stroke: #ffffff; stroke-width: 0.8"/>
      </g>
     </g>
     <g id="text_4">
      <!-- 600 -->
      <g style="fill: #ffffff" transform="translate(500.9885 188.638438) scale(0.1 -0.1)">
       <defs>
        <path id="DejaVuSans-36" d="M 2113 2584 
Q 1688 2584 1439 2293 
Q 1191 2003 1191 1497 
Q 1191 994 1439 701 
Q 1688 409 2113 409 
Q 2538 409 2786 701 
Q 3034 994 3034 1497 
Q 3034 2003 2786 2293 
Q 2538 2584 2113 2584 
z
M 3366 4563 
L 3366 3988 
Q 3128 4100 2886 4159 
Q 2644 4219 2406 4219 
Q 1781 4219 1451 3797 
Q 1122 3375 1075 2522 
Q 1259 2794 1537 2939 
Q 1816 3084 2150 3084 
Q 2853 3084 3261 2657 
Q 3669 2231 3669 1497 
Q 3669 778 3244 343 
Q 2819 -91 2113 -91 
Q 1303 -91 875 529 
Q 447 1150 447 2328 
Q 447 3434 972 4092 
Q 1497 4750 2381 4750 
Q 2619 4750 2861 4703 
Q 3103 4656 3366 4563 
z
" transform="scale(0.015625)"/>
       </defs>
       <use xlink:href="#DejaVuSans-36"/>
       <use xlink:href="#DejaVuSans-30" transform="translate(63.623047 0)"/>
       <use xlink:href="#DejaVuSans-30" transform="translate(127.246094 0)"/>
      </g>
     </g>
    </g>
    <g id="xtick_5">
     <g id="line2d_5">
      <g>
       <use xlink:href="#madb0a488d1" x="642.977417" y="174.04" style="fill: #ffffff; stroke: #ffffff; stroke-width: 0.8"/>
      </g>
     </g>
     <g id="text_5">
      <!-- 650 -->
      <g style="fill: #ffffff" transform="translate(633.433667 188.638438) scale(0.1 -0.1)">
       <use xlink:href="#DejaVuSans-36"/>
       <use xlink:href="#DejaVuSans-35" transform="translate(63.623047 0)"/>
       <use xlink:href="#DejaVuSans-30" transform="translate(127.246094 0)"/>
      </g>
     </g>
    </g>
    <g id="text_6">
     <!-- Longitud de onda (nm) -->
     <g style="fill: #ffffff" transform="translate(302.782031 202.316563) scale(0.1 -0.1)">
      <defs>
       <path id="DejaVuSans-4c" d="M 628 4666 
L 1259 4666 
L 1259 531 
L 3531 531 
L 3531 0 
L 628 0 
L 628 4666 
z
" transform="scale(0.015625)"/>
       <path id="DejaVuSans-6f" d="M 1959 3097 
Q 1497 3097 1228 2736 
Q 959 2375 959 1747 
Q 959 1119 1226 758 
Q 1494 397 1959 397 
Q 2419 397 2687 759 
Q 2956 1122 2956 1747 
Q 2956 2369 2687 2733 
Q 2419 3097 1959 3097 
z
M 1959 3584 
Q 2709 3584 3137 3096 
Q 3566 2609 3566 1747 
Q 3566 888 3137 398 
Q 2709 -91 1959 -91 
Q 1206 -91 779 398 
Q 353 888 353 1747 
Q 353 2609 779 3096 
Q 1206 3584 1959 3584 
z
" transform="scale(0.015625)"/>
       <path id="DejaVuSans-6e" d="M 3513 2113 
L 3513 0 
L 2938 0 
L 2938 2094 
Q 2938 2591 2744 2837 
Q 2550 3084 2163 3084 
Q 1697 3084 1428 2787 
Q 1159 2491 1159 1978 
L 1159 0 
L 581 0 
L 581 3500 
L 1159 3500 
L 1159 2956 
Q 1366 3272 1645 3428 
Q 1925 3584 2291 3584 
Q 2894 3584 3203 3211 
Q 3513 2838 3513 2113 
z
" transform="scale(0.015625)"/>
       <path id="DejaVuSans-67" d="M 2906 1791 
Q 2906 2416 2648 2759 
Q 2391 3103 1925 3103 
Q 1463 3103 1205 2759 
Q 947 2416 947 1791 
Q 947 1169 1205 825 
Q 1463 481 1925 481 
Q 2391 481 2648 825 
Q 2906 1169 2906 1791 
z
M 3481 434 
Q 3481 -459 3084 -895 
Q 2688 -1331 1869 -1331 
Q 1566 -1331 1297 -1286 
Q 1028 -1241 775 -1147 
L 775 -588 
Q 1028 -725 1275 -790 
Q 1522 -856 1778 -856 
Q 2344 -856 2625 -561 
Q 2906 -266 2906 331 
L 2906 616 
Q 2728 306 2450 153 
Q 2172 0 1784 0 
Q 1141 0 747 490 
Q 353 981 353 1791 
Q 353 2603 747 3093 
Q 1141 3584 1784 3584 
Q 2172 3584 2450 3431 
Q 2728 3278 2906 2969 
L 2906 3500 
L 3481 3500 
L 3481 434 
z
" transform="scale(0.015625)"/>
       <path id="DejaVuSans-69" d="M 603 3500 
L 1178 3500 
L 1178 0 
L 603 0 
L 603 3500 
z
M 603 4863 
L 1178 4863 
L 1178 4134 
L 603 4134 
L 603 4863 
z
" transform="scale(0.015625)"/>
       <path id="DejaVuSans-74" d="M 1172 4494 
L 1172 3500 
L 2356 3500 
L 2356 3053 
L 1172 3053 
L 1172 1153 
Q 1172 725 1289 603 
Q 1406 481 1766 481 
L 2356 481 
L 2356 0 
L 1766 0 
Q 1100 0 847 248 
Q 594 497 594 1153 
L 594 3053 
L 172 3053 
L 172 3500 
L 594 3500 
L 594 4494 
L 1172 4494 
z
" transform="scale(0.015625)"/>
       <path id="DejaVuSans-75" d="M 544 1381 
L 544 3500 
L 1119 3500 
L 1119 1403 
Q 1119 906 1312 657 
Q 1506 409 1894 409 
Q 2359 409 2629 706 
Q 2900 1003 2900 1516 
L 2900 3500 
L 3475 3500 
L 3475 0 
L 2900 0 
L 2900 538 
Q 2691 219 2414 64 
Q 2138 -91 1772 -91 
Q 1169 -91 856 284 
Q 544 659 544 1381 
z
M 1991 3584 
L 1991 3584 
z
" transform="scale(0.015625)"/>
       <path id="DejaVuSans-64" d="M 2906 2969 
L 2906 4863 
L 3481 4863 
L 3481 0 
L 2906 0 
L 2906 525 
Q 2725 213 2448 61 
Q 2172 -91 1784 -91 
Q 1150 -91 751 415 
Q 353 922 353 1747 
Q 353 2572 751 3078 
Q 1150 3584 1784 3584 
Q 2172 3584 2448 3432 
Q 2725 3281 2906 2969 
z
M 947 1747 
Q 947 1113 1208 752 
Q 1469 391 1925 391 
Q 2381 391 2643 752 
Q 2906 1113 2906 1747 
Q 2906 2381 2643 2742 
Q 2381 3103 1925 3103 
Q 1469 3103 1208 2742 
Q 947 2381 947 1747 
z
" transform="scale(0.015625)"/>
       <path id="DejaVuSans-20" transform="scale(0.015625)"/>
       <path id="DejaVuSans-65" d="M 3597 1894 
L 3597 1613 
L 953 1613 
Q 991 1019 1311 708 
Q 1631 397 2203 397 
Q 2534 397 2845 478 
Q 3156 559 3463 722 
L 3463 178 
Q 3153 47 2828 -22 
Q 2503 -91 2169 -91 
Q 1331 -91 842 396 
Q 353 884 353 1716 
Q 353 2575 817 3079 
Q 1281 3584 2069 3584 
Q 2775 3584 3186 3129 
Q 3597 2675 3597 1894 
z
M 3022 2063 
Q 3016 2534 2758 2815 
Q 2500 3097 2075 3097 
Q 1594 3097 1305 2825 
Q 1016 2553 972 2059 
L 3022 2063 
z
" transform="scale(0.015625)"/>
       <path id="DejaVuSans-61" d="M 2194 1759 
Q 1497 1759 1228 1600 
Q 959 1441 959 1056 
Q 959 750 1161 570 
Q 1363 391 1709 391 
Q 2188 391 2477 730 
Q 2766 1069 2766 1631 
L 2766 1759 
L 2194 1759 
z
M 3341 1997 
L 3341 0 
L 2766 0 
L 2766 531 
Q 2569 213 2275 61 
Q 1981 -91 1556 -91 
Q 1019 -91 701 211 
Q 384 513 384 1019 
Q 384 1609 779 1909 
Q 1175 2209 1959 2209 
L 2766 2209 
L 2766 2266 
Q 2766 2663 2505 2880 
Q 2244 3097 1772 3097 
Q 1472 3097 1187 3025 
Q 903 2953 641 2809 
L 641 3341 
Q 956 3463 1253 3523 
Q 1550 3584 1831 3584 
Q 2591 3584 2966 3190 
Q 3341 2797 3341 1997 
z
" transform="scale(0.015625)"/>
       <path id="DejaVuSans-28" d="M 1984 4856 
Q 1566 4138 1362 3434 
Q 1159 2731 1159 2009 
Q 1159 1288 1364 580 
Q 1569 -128 1984 -844 
L 1484 -844 
Q 1016 -109 783 600 
Q 550 1309 550 2009 
Q 550 2706 781 3412 
Q 1013 4119 1484 4856 
L 1984 4856 
z
" transform="scale(0.015625)"/>
       <path id="DejaVuSans-6d" d="M 3328 2828 
Q 3544 3216 3844 3400 
Q 4144 3584 4550 3584 
Q 5097 3584 5394 3201 
Q 5691 2819 5691 2113 
L 5691 0 
L 5113 0 
L 5113 2094 
Q 5113 2597 4934 2840 
Q 4756 3084 4391 3084 
Q 3944 3084 3684 2787 
Q 3425 2491 3425 1978 
L 3425 0 
L 2847 0 
L 2847 2094 
Q 2847 2600 2669 2842 
Q 2491 3084 2119 3084 
Q 1678 3084 1418 2786 
Q 1159 2488 1159 1978 
L 1159 0 
L 581 0 
L 581 3500 
L 1159 3500 
L 1159 2956 
Q 1356 3278 1631 3431 
Q 1906 3584 2284 3584 
Q 2666 3584 2933 3390 
Q 3200 3197 3328 2828 
z
" transform="scale(0.015625)"/>
       <path id="DejaVuSans-29" d="M 513 4856 
L 1013 4856 
Q 1481 4119 1714 3412 
Q 1947 2706 1947 2009 
Q 1947 1309 1714 600 
Q 1481 -109 1013 -844 
L 513 -844 
Q 928 -128 1133 580 
Q 1338 1288 1338 2009 
Q 1338 2731 1133 3434 
Q 928 4138 513 4856 
z
" transform="scale(0.015625)"/>
      </defs>
      <use xlink:href="#DejaVuSans-4c"/>
      <use xlink:href="#DejaVuSans-6f" transform="translate(53.962891 0)"/>
      <use xlink:href="#DejaVuSans-6e" transform="translate(115.144531 0)"/>
      <use xlink:href="#DejaVuSans-67" transform="translate(178.523438 0)"/>
      <use xlink:href="#DejaVuSans-69" transform="translate(242 0)"/>
      <use xlink:href="#DejaVuSans-74" transform="translate(269.783203 0)"/>
      <use xlink:href="#DejaVuSans-75" transform="translate(308.992188 0)"/>
      <use xlink:href="#DejaVuSans-64" transform="translate(372.371094 0)"/>
      <use xlink:href="#DejaVuSans-20" transform="translate(435.847656 0)"/>
      <use xlink:href="#DejaVuSans-64" transform="translate(467.634766 0)"/>
      <use xlink:href="#DejaVuSans-65" transform="translate(531.111328 0)"/>
      <use xlink:href="#DejaVuSans-20" transform="translate(592.634766 0)"/>
      <use xlink:href="#DejaVuSans-6f" transform="translate(624.421875 0)"/>
      <use xlink:href="#DejaVuSans-6e" transform="translate(685.603516 0)"/>
      <use xlink:href="#DejaVuSans-64" transform="translate(748.982422 0)"/>
      <use xlink:href="#DejaVuSans-61" transform="translate(812.458984 0)"/>
      <use xlink:href="#DejaVuSans-20" transform="translate(873.738281 0)"/>
      <use xlink:href="#DejaVuSans-28" transform="translate(905.525391 0)"/>
      <use xlink:href="#DejaVuSans-6e" transform="translate(944.539062 0)"/>
      <use xlink:href="#DejaVuSans-6d" transform="translate(1007.917969 0)"/>
      <use xlink:href="#DejaVuSans-29" transform="translate(1105.330078 0)"/>
     </g>
    </g>
   </g>
   <g id="matplotlib.axis_2"/>
   <g id="patch_3">
    <path d="M 10.8 174.04 
L 709.2 174.04 
" style="fill: none; stroke: #ffffff; stroke-width: 0.8; stroke-linejoin: miter; stroke-linecap: square"/>
   </g>
   <g id="line2d_6">
    <path d="M 45.677385 174.04 
L 45.677385 26.88 
" clip-path="url(#p0ee27a8e42)" style="fill: none; stroke: #3399ff; stroke-opacity: 0.95; stroke-width: 1.5; stroke-linecap: square"/>
   </g>
   <g id="line2d_7">
    <path d="M 228.839905 174.04 
L 228.839905 26.88 
" clip-path="url(#p0ee27a8e42)" style="fill: none; stroke: #3399ff; stroke-opacity: 0.95; stroke-width: 1.5; stroke-linecap: square"/>
   </g>
   <g id="line2d_8">
    <path d="M 335.42497 174.04 
L 335.42497 26.88 
" clip-path="url(#p0ee27a8e42)" style="fill: none; stroke: #3399ff; stroke-opacity: 0.95; stroke-width: 1.5; stroke-linecap: square"/>
   </g>
   <g id="line2d_9">
    <path d="M 525.220068 174.04 
L 525.220068 26.88 
" clip-path="url(#p0ee27a8e42)" style="fill: none; stroke: #3399ff; stroke-opacity: 0.95; stroke-width: 1.5; stroke-linecap: square"/>
   </g>
   <g id="line2d_10">
    <path d="M 472.150516 174.04 
L 472.150516 26.88 
" clip-path="url(#p0ee27a8e42)" style="fill: none; stroke: #3399ff; stroke-opacity: 0.95; stroke-width: 1.5; stroke-linecap: square"/>
   </g>
   <g id="line2d_11">
    <path d="M 663.923026 174.04 
L 663.923026 26.88 
" clip-path="url(#p0ee27a8e42)" style="fill: none; stroke: #3399ff; stroke-opacity: 0.95; stroke-width: 1.5; stroke-linecap: square"/>
   </g>
   <g id="line2d_12">
    <path d="M 60.218685 174.04 
L 60.218685 26.88 
" clip-path="url(#p0ee27a8e42)" style="fill: none; stroke: #ff801a; stroke-opacity: 0.95; stroke-width: 1.5; stroke-linecap: square"/>
   </g>
   <g id="line2d_13">
    <path d="M 86.707718 174.04 
L 86.707718 26.88 
" clip-path="url(#p0ee27a8e42)" style="fill: none; stroke: #ff801a; stroke-opacity: 0.95; stroke-width: 1.5; stroke-linecap: square"/>
   </g>
   <g id="line2d_14">
    <path d="M 219.152884 174.04 
L 219.152884 26.88 
" clip-path="url(#p0ee27a8e42)" style="fill: none; stroke: #ff801a; stroke-opacity: 0.95; stroke-width: 1.5; stroke-linecap: square"/>
   </g>
   <g id="line2d_15">
    <path d="M 404.576117 174.04 
L 404.576117 26.88 
" clip-path="url(#p0ee27a8e42)" style="fill: none; stroke: #ff801a; stroke-opacity: 0.95; stroke-width: 1.5; stroke-linecap: square"/>
   </g>
   <g id="line2d_16">
    <path d="M 484.043217 174.04 
L 484.043217 26.88 
" clip-path="url(#p0ee27a8e42)" style="fill: none; stroke: #ff801a; stroke-opacity: 0.95; stroke-width: 1.5; stroke-linecap: square"/>
   </g>
   <g id="line2d_17">
    <path d="M 682.710967 174.04 
L 682.710967 26.88 
" clip-path="url(#p0ee27a8e42)" style="fill: none; stroke: #ff801a; stroke-opacity: 0.95; stroke-width: 1.5; stroke-linecap: square"/>
   </g>
   <g id="text_7">
    <!-- Espectro comparado del Kr -->
    <g style="fill: #ffffff" transform="translate(278.714062 20.88) scale(0.12 -0.12)">
     <defs>
      <path id="DejaVuSans-45" d="M 628 4666 
L 3578 4666 
L 3578 4134 
L 1259 4134 
L 1259 2753 
L 3481 2753 
L 3481 2222 
L 1259 2222 
L 1259 531 
L 3634 531 
L 3634 0 
L 628 0 
L 628 4666 
z
" transform="scale(0.015625)"/>
      <path id="DejaVuSans-73" d="M 2834 3397 
L 2834 2853 
Q 2591 2978 2328 3040 
Q 2066 3103 1784 3103 
Q 1356 3103 1142 2972 
Q 928 2841 928 2578 
Q 928 2378 1081 2264 
Q 1234 2150 1697 2047 
L 1894 2003 
Q 2506 1872 2764 1633 
Q 3022 1394 3022 966 
Q 3022 478 2636 193 
Q 2250 -91 1575 -91 
Q 1294 -91 989 -36 
Q 684 19 347 128 
L 347 722 
Q 666 556 975 473 
Q 1284 391 1588 391 
Q 1994 391 2212 530 
Q 2431 669 2431 922 
Q 2431 1156 2273 1281 
Q 2116 1406 1581 1522 
L 1381 1569 
Q 847 1681 609 1914 
Q 372 2147 372 2553 
Q 372 3047 722 3315 
Q 1072 3584 1716 3584 
Q 2034 3584 2315 3537 
Q 2597 3491 2834 3397 
z
" transform="scale(0.015625)"/>
      <path id="DejaVuSans-70" d="M 1159 525 
L 1159 -1331 
L 581 -1331 
L 581 3500 
L 1159 3500 
L 1159 2969 
Q 1341 3281 1617 3432 
Q 1894 3584 2278 3584 
Q 2916 3584 3314 3078 
Q 3713 2572 3713 1747 
Q 3713 922 3314 415 
Q 2916 -91 2278 -91 
Q 1894 -91 1617 61 
Q 1341 213 1159 525 
z
M 3116 1747 
Q 3116 2381 2855 2742 
Q 2594 3103 2138 3103 
Q 1681 3103 1420 2742 
Q 1159 2381 1159 1747 
Q 1159 1113 1420 752 
Q 1681 391 2138 391 
Q 2594 391 2855 752 
Q 3116 1113 3116 1747 
z
" transform="scale(0.015625)"/>
      <path id="DejaVuSans-63" d="M 3122 3366 
L 3122 2828 
Q 2878 2963 2633 3030 
Q 2388 3097 2138 3097 
Q 1578 3097 1268 2742 
Q 959 2388 959 1747 
Q 959 1106 1268 751 
Q 1578 397 2138 397 
Q 2388 397 2633 464 
Q 2878 531 3122 666 
L 3122 134 
Q 2881 22 2623 -34 
Q 2366 -91 2075 -91 
Q 1284 -91 818 406 
Q 353 903 353 1747 
Q 353 2603 823 3093 
Q 1294 3584 2113 3584 
Q 2378 3584 2631 3529 
Q 2884 3475 3122 3366 
z
" transform="scale(0.015625)"/>
      <path id="DejaVuSans-72" d="M 2631 2963 
Q 2534 3019 2420 3045 
Q 2306 3072 2169 3072 
Q 1681 3072 1420 2755 
Q 1159 2438 1159 1844 
L 1159 0 
L 581 0 
L 581 3500 
L 1159 3500 
L 1159 2956 
Q 1341 3275 1631 3429 
Q 1922 3584 2338 3584 
Q 2397 3584 2469 3576 
Q 2541 3569 2628 3553 
L 2631 2963 
z
" transform="scale(0.015625)"/>
      <path id="DejaVuSans-6c" d="M 603 4863 
L 1178 4863 
L 1178 0 
L 603 0 
L 603 4863 
z
" transform="scale(0.015625)"/>
      <path id="DejaVuSans-4b" d="M 628 4666 
L 1259 4666 
L 1259 2694 
L 3353 4666 
L 4166 4666 
L 1850 2491 
L 4331 0 
L 3500 0 
L 1259 2247 
L 1259 0 
L 628 0 
L 628 4666 
z
" transform="scale(0.015625)"/>
     </defs>
     <use xlink:href="#DejaVuSans-45"/>
     <use xlink:href="#DejaVuSans-73" transform="translate(63.183594 0)"/>
     <use xlink:href="#DejaVuSans-70" transform="translate(115.283203 0)"/>
     <use xlink:href="#DejaVuSans-65" transform="translate(178.759766 0)"/>
     <use xlink:href="#DejaVuSans-63" transform="translate(240.283203 0)"/>
     <use xlink:href="#DejaVuSans-74" transform="translate(295.263672 0)"/>
     <use xlink:href="#DejaVuSans-72" transform="translate(334.472656 0)"/>
     <use xlink:href="#DejaVuSans-6f" transform="translate(373.335938 0)"/>
     <use xlink:href="#DejaVuSans-20" transform="translate(434.517578 0)"/>
     <use xlink:href="#DejaVuSans-63" transform="translate(466.304688 0)"/>
     <use xlink:href="#DejaVuSans-6f" transform="translate(521.285156 0)"/>
     <use xlink:href="#DejaVuSans-6d" transform="translate(582.466797 0)"/>
     <use xlink:href="#DejaVuSans-70" transform="translate(679.878906 0)"/>
     <use xlink:href="#DejaVuSans-61" transform="translate(743.355469 0)"/>
     <use xlink:href="#DejaVuSans-72" transform="translate(804.634766 0)"/>
     <use xlink:href="#DejaVuSans-61" transform="translate(845.748047 0)"/>
     <use xlink:href="#DejaVuSans-64" transform="translate(907.027344 0)"/>
     <use xlink:href="#DejaVuSans-6f" transform="translate(970.503906 0)"/>
     <use xlink:href="#DejaVuSans-20" transform="translate(1031.685547 0)"/>
     <use xlink:href="#DejaVuSans-64" transform="translate(1063.472656 0)"/>
     <use xlink:href="#DejaVuSans-65" transform="translate(1126.949219 0)"/>
     <use xlink:href="#DejaVuSans-6c" transform="translate(1188.472656 0)"/>
     <use xlink:href="#DejaVuSans-20" transform="translate(1216.255859 0)"/>
     <use xlink:href="#DejaVuSans-4b" transform="translate(1248.042969 0)"/>
     <use xlink:href="#DejaVuSans-72" transform="translate(1313.619141 0)"/>
    </g>
   </g>
   <g id="legend_1">
    <g id="patch_4">
     <path d="M 625.554687 64.23625 
L 702.2 64.23625 
Q 704.2 64.23625 704.2 62.23625 
L 704.2 33.88 
Q 704.2 31.88 702.2 31.88 
L 625.554687 31.88 
Q 623.554687 31.88 623.554687 33.88 
L 623.554687 62.23625 
Q 623.554687 64.23625 625.554687 64.23625 
z
" style="opacity: 0.7; stroke: #cccccc; stroke-linejoin: miter"/>
    </g>
    <g id="line2d_18">
     <path d="M 627.554687 39.978437 
L 637.554687 39.978437 
L 647.554687 39.978437 
" style="fill: none; stroke: #3399ff; stroke-width: 1.5; stroke-linecap: square"/>
    </g>
    <g id="text_8">
     <!-- Medido -->
     <g style="fill: #ffffff" transform="translate(655.554687 43.478437) scale(0.1 -0.1)">
      <defs>
       <path id="DejaVuSans-4d" d="M 628 4666 
L 1569 4666 
L 2759 1491 
L 3956 4666 
L 4897 4666 
L 4897 0 
L 4281 0 
L 4281 4097 
L 3078 897 
L 2444 897 
L 1241 4097 
L 1241 0 
L 628 0 
L 628 4666 
z
" transform="scale(0.015625)"/>
      </defs>
      <use xlink:href="#DejaVuSans-4d"/>
      <use xlink:href="#DejaVuSans-65" transform="translate(86.279297 0)"/>
      <use xlink:href="#DejaVuSans-64" transform="translate(147.802734 0)"/>
      <use xlink:href="#DejaVuSans-69" transform="translate(211.279297 0)"/>
      <use xlink:href="#DejaVuSans-64" transform="translate(239.0625 0)"/>
      <use xlink:href="#DejaVuSans-6f" transform="translate(302.539062 0)"/>
     </g>
    </g>
    <g id="line2d_19">
     <path d="M 627.554687 54.656562 
L 637.554687 54.656562 
L 647.554687 54.656562 
" style="fill: none; stroke: #ff801a; stroke-width: 1.5; stroke-linecap: square"/>
    </g>
    <g id="text_9">
     <!-- Tabulado -->
     <g style="fill: #ffffff" transform="translate(655.554687 58.156562) scale(0.1 -0.1)">
      <defs>
       <path id="DejaVuSans-54" d="M -19 4666 
L 3928 4666 
L 3928 4134 
L 2272 4134 
L 2272 0 
L 1638 0 
L 1638 4134 
L -19 4134 
L -19 4666 
z
" transform="scale(0.015625)"/>
       <path id="DejaVuSans-62" d="M 3116 1747 
Q 3116 2381 2855 2742 
Q 2594 3103 2138 3103 
Q 1681 3103 1420 2742 
Q 1159 2381 1159 1747 
Q 1159 1113 1420 752 
Q 1681 391 2138 391 
Q 2594 391 2855 752 
Q 3116 1113 3116 1747 
z
M 1159 2969 
Q 1341 3281 1617 3432 
Q 1894 3584 2278 3584 
Q 2916 3584 3314 3078 
Q 3713 2572 3713 1747 
Q 3713 922 3314 415 
Q 2916 -91 2278 -91 
Q 1894 -91 1617 61 
Q 1341 213 1159 525 
L 1159 0 
L 581 0 
L 581 4863 
L 1159 4863 
L 1159 2969 
z
" transform="scale(0.015625)"/>
      </defs>
      <use xlink:href="#DejaVuSans-54"/>
      <use xlink:href="#DejaVuSans-61" transform="translate(44.583984 0)"/>
      <use xlink:href="#DejaVuSans-62" transform="translate(105.863281 0)"/>
      <use xlink:href="#DejaVuSans-75" transform="translate(169.339844 0)"/>
      <use xlink:href="#DejaVuSans-6c" transform="translate(232.71875 0)"/>
      <use xlink:href="#DejaVuSans-61" transform="translate(260.501953 0)"/>
      <use xlink:href="#DejaVuSans-64" transform="translate(321.78125 0)"/>
      <use xlink:href="#DejaVuSans-6f" transform="translate(385.257812 0)"/>
     </g>
    </g>
   </g>
  </g>
 </g>
 <defs>
  <clipPath id="p0ee27a8e42">
   <rect x="10.8" y="26.88" width="698.4" height="147.16"/>
  </clipPath>
 </defs>
</svg>
